# xmcd CD database file
#
# Track frame offsets:
#	150
#	12709
#	32110
#	62144
#	74031
#	101293
#	116924
#	139033
#	173737
#
# Disc length: 2468 seconds
#
# Revision: 0
# Processed by: cddbd v1.5.2PL0 Copyright (c) Steve Scherf et al.
# Submitted via: CDex 1.75
#
DISCID=8309a209
DTITLE=Erroll Garner - The Complete Concert by the Sea - CD2
DYEAR=1955
DGENRE=Jazz
TTITLE0=Announcer: Jimmy Lyons [The Complete Concert by the Sea]
TTITLE1=They Can't Take That Away from Me [The Complete Concert by the Sea]
TTITLE2=Autumn Leaves [The Complete Concert by the Sea]
TTITLE3=S'Wonderful [The Complete Concert by the Sea]
TTITLE4=Laura [The Complete Concert by the Sea]
TTITLE5=Red Top [The Complete Concert by the Sea]
TTITLE6=April In Paris [The Complete Concert by the Sea]
TTITLE7=Caravan [The Complete Concert by the Sea]
TTITLE8=Erroll's Theme - Announcer: Jimmy Lyons [The Complete Concert by the Sea]
EXTD=YEAR: 1955
EXTT0=
EXTT1=
EXTT2=
EXTT3=
EXTT4=
EXTT5=
EXTT6=
EXTT7=
EXTT8=
PLAYORDER=
